<?xml version="1.0" encoding="UTF-8"?><svg id="a" xmlns="http://www.w3.org/2000/svg" viewBox="0 0 812 812"><path d="M749.24,396.66H90.43c-8.84,0-16.01-7.17-16.01-16.01V156c0-8.84,7.17-16.01,16.01-16.01H749.24c8.84,0,16.01,7.17,16.01,16.01v224.66c0,8.84-7.17,16.01-16.01,16.01ZM76.33,156v224.66c0,7.79,6.31,14.1,14.1,14.1H749.24c7.79,0,14.1-6.31,14.1-14.1V156c0-7.79-6.31-14.1-14.1-14.1H90.43c-7.79,0-14.1,6.31-14.1,14.1Z" fill="#3f3d56"/><rect id="b" y="665.74" width="812" height="1.91" fill="#e6e6e6"/><rect id="c" y="583.68" width="812" height="1.91" fill="#e6e6e6"/><g><path id="d" d="M370.16,405.26c.58,7.33,4.84,12.97,9.5,12.6s7.97-6.61,7.39-13.94c-.19-2.93-1.09-5.77-2.6-8.29l-2.86-31.02-14.53,1.65,4.36,30.4c-1.1,2.73-1.53,5.67-1.26,8.6Z" fill="#ffb6b6"/><path d="M352.81,260.56s13.58-7.19,20.47,3.55c6.89,10.74,11.64,126.92,11.64,126.92l-19.09,2.04-3.62-81.87-9.4-50.65h0Z" fill="#e6e6e6"/><g><polygon points="324.42 577.96 335.55 577.96 340.85 535.02 324.42 535.02 324.42 577.96" fill="#ffb6b6"/><path d="M362.54,576.8h0c.34,.58,.53,2.45,.53,3.13h0c0,2.07-1.68,3.75-3.75,3.75h-34.24c-1.41,0-2.56-1.15-2.56-2.56v-1.43s-1.69-4.28,1.79-9.57c0,0,4.33,4.13,10.81-2.34l1.91-3.46,13.82,10.11,7.66,.94c1.68,.21,3.16-.03,4.03,1.42h0Z" fill="#2f2e41"/></g><g><polygon points="388.6 575.58 399.32 572.84 393.86 530.22 378.05 534.26 388.6 575.58" fill="#ffb6b6"/><path d="M425.24,565.96h0c.48,.48,1.12,2.24,1.28,2.9h0c.51,2.01-.7,4.05-2.71,4.56l-33.17,8.47c-1.37,.35-2.76-.48-3.11-1.85l-.35-1.38s-2.7-3.73-.63-9.71c0,0,5.22,2.93,9.89-4.94l.99-3.82,15.9,6.37,7.66-.98c1.68-.22,3.06-.81,4.25,.38h0Z" fill="#2f2e41"/></g><polygon points="315.48 251.39 314.95 247.58 321.18 232.37 338.3 230.46 342 252.25 315.48 251.39" fill="#ffb6b6"/><polygon points="315.48 251.39 314.95 247.58 321.18 232.37 338.3 230.46 342 252.25 315.48 251.39" isolation="isolate" opacity=".1"/><polygon points="295.5 359.14 287.9 380.07 293.6 391.48 322.13 556.97 341.1 556.97 337.35 410.5 381.1 556.97 399.87 556.97 384.78 458.05 373.49 366.75 366.65 362.52 333.55 343.93 295.5 359.14" fill="#2f2e41"/><polygon points="344.01 372.7 332.6 374.6 317.38 338.46 351.62 338.46 344.01 372.7" fill="#e6e6e6"/><polygon points="366.83 363.61 344.01 373.12 336.4 356.01 332.6 375.03 292.65 362.17 298.36 338.89 292.65 262.8 312.79 249.37 315.48 247.58 340.2 249.49 342.37 250.67 357.32 259 361.13 321.77 366.83 363.61" fill="#2f2e41"/><polygon points="342.37 250.67 331.64 296.09 312.79 249.37 315.48 247.58 340.2 249.49 342.37 250.67" fill="#e6e6e6"/><polygon points="324.04 247.81 320.23 254.37 324.04 256.55 322.13 296.44 329.74 306.78 337.35 291.49 331.64 256.55 333.55 247.81 324.04 247.81" fill="#2f2e41"/><circle cx="329.74" cy="225.71" r="18.07" fill="#ffb6b6"/><path d="M318.19,227.29l3.9,1.7,1.7-10.22s6.82-3.41,11.93-1.7c5.11,1.7,13.63,0,13.63,0,0,0,0-17.04-11.93-17.04s-23.86,1.7-23.86,6.82-5.11,10.22-5.11,10.22c0,0-6.82,10.22,0,17.04s10.22,6.82,10.22,6.82l-.5-13.63h0Z" fill="#2f2e41"/><path id="e" d="M283.43,404.39c-.2,7.35,3.43,13.41,8.11,13.53,4.68,.13,8.63-5.73,8.82-13.08,.12-2.94-.47-5.86-1.71-8.52l.45-31.15-14.62,.1,1.11,30.69c-1.38,2.59-2.13,5.48-2.16,8.42Z" fill="#ffb6b6"/><path d="M301.22,258.75s-12.36-3.8-18.07,7.61c-5.71,11.41,1.9,127.44,1.9,127.44h19.19l-5.09-81.79,2.07-53.26h0Z" fill="#e6e6e6"/></g><g><path d="M775.22,474.84l-46.67-14.28c-.68-.21-1.4-.28-2.11-.22l-238.43,20.27c-2.23,.19-2.79,3.2-.78,4.18l11.05,5.38h-.2v174.61h7.63v-171.23l23.23,11.41c1.81,.89,3.82,1.25,5.82,1.04l2.43-.25v159.02h7.63v-159.73l180.34-18.26v177.99h7.63v-178.7l29.58-3.03v181.73h6.68v-182.49l5.48-.55c3.84-.39,4.37-5.77,.68-6.9h0Z" fill="#3f3d56"/><path d="M560.41,479.87c4.41,0,69.65-7.93,69.65-7.93l9.7,13.22-67.89,13.22-11.46-18.51h0Z" fill="#fff"/><g><polygon points="631.58 658.11 620.21 658.09 614.88 614.22 631.66 614.25 631.58 658.11" fill="#a0616a"/><path d="M593.5,657.73h0c-.35,.59-.54,2.51-.54,3.2h0c0,2.12,1.72,3.85,3.84,3.85l35.1,.06c1.45,0,2.63-1.17,2.63-2.62v-1.46s1.75-4.39-1.82-9.81c0,0-4.45,4.23-11.08-2.42l-1.95-3.55-14.19,10.34-7.86,.95c-1.72,.21-3.24-.04-4.13,1.45h0Z" fill="#2f2e41"/></g><g><polygon points="692.85 637.9 683.91 644.65 653.63 613.36 666.83 603.41 692.85 637.9" fill="#a0616a"/><path d="M662.06,660.81h0c.08,.68,1.07,2.3,1.48,2.85h0c1.26,1.68,3.65,2.01,5.32,.75l27.69-20.89c1.14-.86,1.37-2.49,.51-3.63l-.87-1.15s-1.24-4.5-7.29-6.64c0,0-.98,5.99-10.17,4.7l-3.66-1.63-5.01,16.61-5.62,5.44c-1.23,1.19-2.58,1.9-2.39,3.6h0Z" fill="#2f2e41"/></g><path d="M669.16,411.89c0,10.45-8.47,18.93-18.93,18.93s-18.93-8.47-18.93-18.93,8.47-18.93,18.93-18.93,18.93,8.47,18.93,18.93Z" fill="#a0616a"/><path d="M667.38,521.02s-69.68-3.94-73.63,3.94,21.32,116.25,21.32,116.25l22.54-4.72-11-76.03s58.15,15.4,66.04-3.01c7.89-18.41,5.62-25.26,5.62-25.26l-30.9-11.18h0Z" fill="#2f2e41"/><path d="M685.23,507.78s-68.25,14.63-69.96,23.28c-1.72,8.65,51.32,106.47,51.32,106.47l20.49-10.52-30.72-70.41s60.15-.53,62.89-20.37c2.74-19.84-1.26-25.85-1.26-25.85l-32.75-2.6h0Z" fill="#2f2e41"/><path d="M693.02,433.88h-32.79l-22.43,36.81s-5.26,23.79,0,26.36c5.26,2.57,5.26,30.18,5.26,30.18l55.22,5.26s7.89-82.83,5.26-90.72-10.52-7.89-10.52-7.89Z" fill="#3038d9"/><path d="M641.08,457.91l-3.29,38.85-36.97-15.69-8.82-4.44c-1.73-2.25-3.97-4.06-6.54-5.27-6.39-3.11-13.17-2.34-15.16,1.72-1.98,4.07,1.59,9.88,7.98,13,2.54,1.28,5.34,1.93,8.18,1.9l25.82,14.66,.03-.06,.11,.2,40.49,16.91,9.32-51-21.15-10.8h0Z" fill="#a0616a"/><path d="M637.14,414.52s-19.72,2.63-11.83-14.46c0,0-1.2-9.27,4.66-9.89,5.86-.63,13.75-11.14,13.75-11.14,0,0,18.09-9.2,27.45,0s36.98,63.11,36.98,63.11l-18.41,19.72s-11.07-29.09-23.94-25.72c-12.87,3.37-24.71,13.42-24.71,13.42,0,0-13.07-6.54-7.19-12.24,5.88-5.7,3.25-22.79,3.25-22.79Z" fill="#2f2e41"/><path d="M663.43,443.45s-9.2-11.83-15.78-2.63c-6.57,9.2-11.83,21.04-11.83,21.04l26.3,9.2,1.31-27.61Z" fill="#3038d9"/><path d="M763.28,662.4l-30.55-97.11v.26h.05l-.12-.16h0l-2.17-6.9h0c3.31-2.85,5.56-6.92,6.01-11.61l-13.93-76.62c.96-10.06-6.75-18.85-16.86-19.22l-31.59-.08c-8.94-.32-16.69,6.14-17.99,15l-.7,4.7-9.64,65.57c-.35,2.36-.21,4.68,.34,6.86l-6.94,.91-2.1,.28-8.32,1.08h-.03l-1.04,.14h-.81v27.67h0v90.32c-.29,.58,.19,1.06,.77,1.06s1.07-.48,1.14-1.06v-90.32h12.29l12.33,90.21c.08,.53,.53,.92,1.06,.92,.04,0,.1,0,.14,0,.58-.08,.99-.62,.91-1.2l-12.29-89.92h59.31c5.89,.14,11.35-1.73,15.79-4.93l23.52,94.97c.12,.48,.55,.8,1.03,.8,.09,0,.17-.01,.26-.03,.57-.14,.91-.72,.77-1.29l-23.74-95.89c.32-.26,.63-.54,.93-.83l9.44-.56,30.71,97.61c.14,.45,.56,.74,1.01,.74,.11,0,.21-.02,.32-.05,.56-.18,.87-.77,.69-1.33h0Zm-34.8-102.68c.08-.04,.15-.1,.22-.14h0l.23,.72-.45-.58Z" fill="#e6e6e6"/></g><g><g><polygon points="164.12 497.8 184.68 484.73 193.04 489.77 164.12 523 164.12 497.8" fill="#ffb6b6"/><path d="M135.68,447.19s-13.66,3.21-7.23,21.69c6.43,18.48,27.31,57.04,33.74,54.63s7.23-26.51,7.23-26.51c0,0-.8,.8-4.02-2.41-3.21-3.21-3.21-1.75-3.21-5.29s-2.63-6.17-2.63-6.17l-3-6.21s0-28.92-12.05-30.53c-12.05-1.61-8.84,.8-8.84,.8Z" fill="#e6e6e6"/><ellipse cx="193.52" cy="482.94" rx="13.66" ry="8.44" transform="translate(-284.81 278.29) rotate(-45)" fill="#ffb6b6"/></g><g><polygon points="82.49 553.64 96.52 576.86 178.28 572.02 156.51 543.96 82.49 553.64" fill="#e6e6e6"/><path d="M106.92,662.25c-.48,0-.89-.35-.96-.84l-24.43-178.44c-.07-.53,.3-1.02,.83-1.09,.53-.08,1.02,.3,1.09,.83l24.43,178.44c.07,.53-.3,1.02-.83,1.09-.04,0-.09,0-.13,0Z" fill="#e6e6e6"/><path d="M82.06,661.22c-.53,0-.95-.43-.95-.95v-176.15c0-.53,.43-.95,.95-.95s.95,.43,.95,.95v176.15c0,.53-.43,.95-.95,.95Z" fill="#e6e6e6"/><path d="M205.13,661.77c-.41,0-.79-.26-.92-.68l-57.81-183.76c-.16-.51,.12-1.05,.63-1.21,.51-.16,1.05,.12,1.21,.63l57.81,183.76c.16,.51-.12,1.05-.63,1.21-.1,.03-.19,.04-.29,.04h0Z" fill="#e6e6e6"/><path d="M187.47,661.99c-.43,0-.83-.29-.94-.73l-40.16-162.18c-.13-.52,.18-1.04,.7-1.18,.52-.13,1.04,.18,1.18,.7l40.16,162.18c.13,.52-.18,1.04-.7,1.18-.08,.02-.16,.03-.24,.03h0Z" fill="#e6e6e6"/><polygon points="82.04 485.4 149.33 484.37 161.72 555.06 83.01 555.06 82.04 485.4" fill="#e6e6e6"/></g><g><polygon points="185.46 589.23 168.57 618.96 188.18 623.28 196.35 602.13 185.46 589.23" fill="#ffb6b6"/><path d="M174.64,613.35s-.66-4.85-4.51-3.31c-3.86,1.54-14.99,7.26-14.99,7.26,0,0,29.04,47.18,34.55,44.99,5.51-2.2-1.09-15.54-1.09-15.54l1.46-23.58-15.41-9.82h0Z" fill="#2f2e41"/><path d="M110.78,531.54s-6.03,27.72,12.45,37.36c18.48,9.64,81.54-14.06,81.54-14.06l-28.92,43.33,20.08,8.08s45.79-60.25,42.58-69.89c-3.21-9.64-24.9-10.44-24.9-10.44l-49,2.41-12.85-4.02-40.97,7.23Z" fill="#2f2e41"/></g><g><polygon points="160.48 602.43 133.93 623.98 150.62 635.13 165.93 618.41 160.48 602.43" fill="#ffb6b6"/><path d="M141.62,620.95s1.15-4.75-3-4.73-16.6,1.3-16.6,1.3c0,0,9.88,54.52,15.81,54.47,5.93-.04,4.64-14.87,4.64-14.87l9.94-21.43-10.78-14.76h0Z" fill="#2f2e41"/><path d="M111.91,521.52s-15.7,23.62-1.99,39.33,81.07,16.58,81.07,16.58l-42.71,29.84,15.77,14.84s64.58-39.46,65.09-49.61-19.4-18.79-19.4-18.79l-46.52-15.59-10.51-8.42-40.79-8.17Z" fill="#2f2e41"/></g><path d="M152.23,466.8s-15.26-5.62-22.49-5.62c-.69,0-1.37,.08-2.06,.22-4.63,.98-8.89,4.96-10.93,7.13-.8,.85-1.25,1.42-1.25,1.42,0,0,.05-.55,.14-1.53,.47-5.11,2.23-21.88,5.37-32.61,1.12-3.83,2.42-6.89,3.9-8.38,3.46-3.47,5.06-7.63,5.8-10.73,.63-2.66,.63-4.53,.63-4.53l-5.86-2.52-1.08-7.09c-.19,.84-1.08,2.47-4.08,5.59-.26,.27-.54,.49-.84,.68-4.32,2.72-13.13-2.01-17.88-4.98,1.98-6.87,5.56-13.15,12.07-14.18,15.26-2.41,15.26-11.25,24.9-1.61,.8,.8,1.6,1.56,2.4,2.3,3.08,5.9,4.21,13.8,4.61,19.3,.29,3.85,.22,6.52,.22,6.52,0,0,4.02,24.1,10.44,28.92s-4.02,21.69-4.02,21.69h0Z" fill="#2f2e41"/><polygon points="122.79 428.15 111.93 444.07 136.45 450.65 136.45 428.15 122.79 428.15" fill="#ffb6b6"/><polygon points="122.79 428.15 111.93 444.07 136.45 450.65 136.45 428.15 122.79 428.15" isolation="isolate" opacity=".1"/><path d="M137.69,443.58l-23.3-9.64s-31.33,13.66-28.92,40.17,24.9,72.3,24.9,72.3l44.99-19.28-4.82-51.41-12.85-32.13h0Z" fill="#e6e6e6"/><circle cx="127.7" cy="414.79" r="20.55" fill="#ffb6b6"/><path d="M155.45,407.35c-4.02,4.02-7.23,8.03-7.23,8.03l-1.61-6.43s-.37,.27-1.02,.71c-2.55,1.74-9.38,6.1-14.87,7.04-2.44,.42-4.61,.15-6.03-1.32-3-3.13-3.89-4.76-4.08-5.59l-1.08,7.09-5.86,2.52s0,8.82,6.43,15.26c.31,.31,.62,.7,.92,1.15,3.07,4.63,5.27,15.95,6.67,25.59,1.24,8.56,1.83,15.78,1.83,15.78,0,0-6.08-7.62-12.76-8.65-.37-.06-.74-.1-1.11-.1-.12-.02-.25-.02-.37-.02-7.23,0-22.49,5.62-22.49,5.62,0,0-10.44-16.87-4.02-21.69,6.43-4.82,10.44-28.92,10.44-28.92,0,0-.27-10.32,2.39-19.56,1.98-6.87,5.56-13.15,12.07-14.18,15.26-2.41,15.26-11.25,24.9-1.61,.8,.8,1.6,1.56,2.4,2.3,8.98,8.26,18.16,13.3,14.47,16.98h0Z" fill="#2f2e41"/><rect x="57.25" y="514.98" width="7.63" height="150.76" fill="#3f3d56"/><rect x="242.36" y="514.98" width="7.63" height="150.76" fill="#3f3d56"/><rect x="150.76" y="451.05" width="50.57" height="50.57" fill="#3038d9"/><g><polygon points="122.13 505.03 142.7 491.96 151.05 497 122.13 530.23 122.13 505.03" fill="#ffb6b6"/><path d="M93.91,454.42s-13.66,3.21-7.23,21.69c6.43,18.48,27.31,57.04,33.74,54.63s7.23-26.51,7.23-26.51c0,0-.8,.8-4.02-2.41-3.21-3.21-3.21-1.75-3.21-5.29s-2.63-6.17-2.63-6.17l-3-6.21s0-28.92-12.05-30.53c-12.05-1.61-8.84,.8-8.84,.8Z" fill="#e6e6e6"/><ellipse cx="151.75" cy="490.17" rx="13.66" ry="8.44" transform="translate(-302.16 250.87) rotate(-45)" fill="#ffb6b6"/></g><rect x="34.35" y="509.26" width="230.91" height="17.18" fill="#3f3d56"/></g><rect x="460.86" y="371.86" width="43.89" height="23.85" rx="4.89" ry="4.89" fill="#3f3d56"/><rect x="533.4" y="386.17" width="42.78" height="9.54" rx="4.77" ry="4.77" fill="#3038d9"/></svg>