<?xml version="1.0" encoding="UTF-8"?>
<!-- Generated by Pixelmator Pro 3.3.5 -->
<svg width="1180" height="659" viewBox="0 0 1180 659" xmlns="http://www.w3.org/2000/svg">
    <path id="Path" fill="#ff6584" stroke="none" d="M 247.896149 117.527588 C 247.896149 142.932678 227.301254 163.527588 201.896149 163.527588 C 176.491058 163.527588 155.896149 142.932678 155.896149 117.527588 C 155.896149 92.122437 176.491058 71.527588 201.896149 71.527588 C 227.301254 71.527588 247.896149 92.122437 247.896149 117.527588 Z"/>
    <path id="path1" fill="#e6e6e6" stroke="none" d="M 1016.006348 569 C 1016.006348 573.773926 969.2276 578.352295 885.960815 581.727905 C 802.694092 585.103516 689.760132 587 572.003174 587 C 454.246216 587 341.312286 585.103516 258.045532 581.727905 C 174.778778 578.352295 128 573.773926 128 569 C 128 564.226074 174.778778 559.647705 258.045532 556.272095 C 341.312286 552.896423 454.246216 551 572.003174 551 C 689.760132 551 802.694092 552.896423 885.960815 556.272095 C 969.2276 559.647705 1016.006348 564.226074 1016.006348 569 Z"/>
    <path id="path2" fill="#ffb442" stroke="none" d="M 354 230.417389 C 354 292.825562 303.408173 343.417358 241 343.417358 C 178.591827 343.417358 128 292.825562 128 230.417389 C 128 168.009186 178.591827 117.417358 241 117.417358 C 303.408173 117.417358 354 168.009186 354 230.417389 Z"/>
    <path id="path3" fill="#3f3d56" stroke="none" d="M 251.891998 570.778931 L 228.747009 570.778931 L 239.298004 213.398987 L 251.891998 570.778931 Z"/>
    <path id="path4" fill="#3f3d56" stroke="none" d="M 241.339996 281.130981 L 266.186981 246.754974 L 241 289.639984 L 238.276993 284.874969 L 241.339996 281.130981 Z"/>
    <path id="path5" fill="#3f3d56" stroke="none" d="M 238.616989 315.847961 L 213.770996 281.471985 L 238.957993 324.356964 L 241.681 319.59198 L 238.616989 315.847961 Z"/>
    <path id="path6" fill="#3f3d56" stroke="none" d="M 955.505005 571.154907 L 932.361023 571.154907 L 942.911987 213.774963 L 955.505005 571.154907 Z"/>
    <path id="path7" fill="#3f3d56" stroke="none" d="M 944.953979 281.506989 L 969.801025 247.130981 L 944.614014 290.015961 L 941.890991 285.250977 L 944.953979 281.506989 Z"/>
    <path id="path8" fill="#3f3d56" stroke="none" d="M 942.231018 316.223969 L 917.38501 281.847961 L 942.572021 324.732971 L 945.294983 319.967957 L 942.231018 316.223969 Z"/>
    <path id="path9" fill="#3f3d56" stroke="none" d="M 797.559204 360.591248 C 797.559204 476.849152 703.313538 571.094849 587.055603 571.094849 C 470.797699 571.094849 376.552032 476.849152 376.552032 360.591248 C 376.552032 244.333313 470.797699 150.087646 587.055603 150.087646 C 703.313538 150.087646 797.559204 244.333313 797.559204 360.591248 Z"/>
    <path id="path10" fill="#ffffff" stroke="none" d="M 780.133423 360.591248 C 780.133423 467.225159 693.689514 553.669067 587.055603 553.669067 C 480.421692 553.669067 393.977814 467.225159 393.977814 360.591248 C 393.977814 253.957336 480.421692 167.513458 587.055603 167.513458 C 693.689514 167.513458 780.133423 253.957336 780.133423 360.591248 Z"/>
    <path id="path11" fill="#3f3d56" stroke="none" d="M 612.148743 361.288269 C 612.148743 375.531799 600.602112 387.07843 586.358582 387.07843 C 572.115051 387.07843 560.56842 375.531799 560.56842 361.288269 C 560.56842 347.044739 572.115051 335.498108 586.358582 335.498108 C 600.602112 335.498108 612.148743 347.044739 612.148743 361.288269 Z"/>
    <path id="path12" fill="#3f3d56" stroke="none" d="M 580.782349 177.271881 L 591.934875 177.271881 L 591.934875 198.182831 L 580.782349 198.182831 Z"/>
    <path id="path13" fill="#3f3d56" stroke="none" d="M 580.782349 524.393677 L 591.934875 524.393677 L 591.934875 545.304626 L 580.782349 545.304626 Z"/>
    <path id="path14" fill="#3f3d56" stroke="none" d="M 423.253174 355.712006 L 423.253174 366.864532 L 402.342224 366.864532 L 402.342224 355.712006 Z"/>
    <path id="path15" fill="#3f3d56" stroke="none" d="M 770.374939 355.711975 L 770.374939 366.864502 L 749.463989 366.864502 L 749.463989 355.711975 Z"/>
    <path id="path16" fill="#3f3d56" stroke="none" d="M 578.924011 372.483978 L 588.455017 350.690979 L 707.880005 416.832977 L 578.924011 372.483978 Z"/>
    <path id="path17" fill="#3f3d56" stroke="none" d="M 559.871338 99.204346 L 614.239807 99.204346 L 614.239807 161.937195 L 559.871338 161.937195 Z"/>
    <path id="path18" fill="#3f3d56" stroke="none" d="M 649.788452 99.204346 C 649.788452 108.828369 621.702026 116.630127 587.055603 116.630127 C 552.40918 116.630127 524.322754 108.828369 524.322754 99.204346 C 524.322754 89.580322 552.40918 81.778564 587.055603 81.778564 C 621.702026 81.778564 649.788452 89.580322 649.788452 99.204346 Z"/>
    <path id="path19" fill="#ffb8b8" stroke="none" d="M 704.505432 397.882416 L 701.020264 402.761627 C 701.020264 402.761627 684.988525 421.581543 684.291504 412.520142 C 683.594482 403.458679 696.141052 397.185394 696.141052 397.185394 L 703.111389 393.003204 Z"/>
    <path id="path20" fill="#ffb8b8" stroke="none" d="M 803.724731 414.344238 L 806.643066 419.582214 C 806.643066 419.582214 816.791504 442.125793 808.303467 438.877869 C 799.815491 435.629944 799.515137 421.605652 799.515137 421.605652 L 798.718262 413.516052 Z"/>
    <path id="path21" fill="#2f2e41" stroke="none" d="M 809.257751 300.240417 C 809.257751 311.96225 799.75531 321.464661 788.033508 321.464661 C 776.311646 321.464661 766.809204 311.96225 766.809204 300.240417 C 766.809204 288.518585 776.311646 279.016174 788.033508 279.016174 C 799.75531 279.016174 809.257751 288.518585 809.257751 300.240417 Z"/>
    <path id="path22" fill="#ffb8b8" stroke="none" d="M 786.058167 474.555969 L 788.846313 492.678772 L 788.846313 498.255005 L 804.877991 498.255005 L 804.877991 491.284729 C 804.877991 491.284729 805.575012 478.738159 802.786926 475.252991 C 799.99884 471.767822 786.058167 474.555969 786.058167 474.555969 Z"/>
    <path id="path23" fill="#ffb8b8" stroke="none" d="M 757.479858 474.555969 L 760.268005 492.678772 L 760.268005 498.255005 L 776.299744 498.255005 L 776.299744 491.284729 C 776.299744 491.284729 776.996704 478.738159 774.208618 475.252991 C 771.420532 471.767822 757.479858 474.555969 757.479858 474.555969 Z"/>
    <path id="path24" fill="#ffb442" stroke="none" d="M 768.26825 328.982666 C 768.26825 328.982666 762.10199 332.232666 766.31366 339.625519 C 770.525269 347.018372 795.236145 423.502136 795.236145 423.502136 L 809.491943 419.455322 L 796.919617 371.084747 L 789.720825 340.683167 Z"/>
    <path id="path25" fill="#ffb8b8" stroke="none" d="M 801.741394 306.222748 C 801.741394 315.076843 794.563721 322.254486 785.709656 322.254486 C 776.855591 322.254486 769.677917 315.076843 769.677917 306.222748 C 769.677917 297.368683 776.855591 290.19104 785.709656 290.19104 C 794.563721 290.19104 801.741394 297.368683 801.741394 306.222748 Z"/>
    <path id="path26" fill="#ffb8b8" stroke="none" d="M 793.028503 308.662354 L 790.937378 341.422882 L 776.299744 330.967377 C 776.299744 330.967377 781.178955 311.45047 779.784851 310.056366 Z"/>
    <path id="path27" fill="#ffb442" stroke="none" d="M 793.028503 338.634705 L 777.25946 326.957672 C 777.25946 326.957672 770.026428 323.99707 767.935303 327.482208 C 765.844238 330.967346 755.388733 382.547699 760.965027 392.306183 C 760.965027 392.306183 790.937378 398.579498 797.210632 395.09433 L 799.998779 376.971497 C 799.998779 376.971497 803.483948 365.819 797.907715 358.848663 Z"/>
    <path id="path28" fill="#ffb442" stroke="none" d="M 772.117554 328.17926 C 772.117554 328.17926 766.54126 323.99707 761.662048 330.967377 C 756.782837 337.937683 698.232178 393.003204 698.232178 393.003204 L 707.990601 404.155762 L 746.327332 372.092255 L 770.72345 352.575348 Z"/>
    <path id="path29" fill="#2f2e41" stroke="none" d="M 797.559204 394.745758 C 797.559204 394.745758 763.056091 388.123993 759.570984 393.003204 L 758.873962 400.670563 C 758.873962 400.670563 751.206604 415.308228 755.388794 439.007324 C 759.570984 462.706421 756.782837 477.344055 756.782837 477.344055 C 756.782837 477.344055 775.602722 475.252991 789.543335 477.344055 C 803.483948 479.435181 805.575073 477.344055 805.575073 477.344055 Z"/>
    <path id="path30" fill="#2f2e41" stroke="none" d="M 806.272095 495.466919 L 786.058167 496.163879 L 793.028503 548.441284 C 793.028503 548.441284 787.452209 570.746277 793.725464 572.14032 C 798.086304 573.02063 802.520508 573.487366 806.969116 573.534424 C 806.969116 573.534424 813.242371 579.807678 820.212708 579.110657 C 824.841736 578.51947 829.327271 577.102966 833.456299 574.928467 C 833.456299 574.928467 834.850342 570.746277 829.97113 569.352234 C 825.091919 567.958191 811.848328 563.77594 809.06012 549.138306 Z"/>
    <path id="path31" fill="#2f2e41" stroke="none" d="M 777.693787 495.466919 L 757.479858 496.163879 L 764.450195 548.441284 C 764.450195 548.441284 758.873901 570.746277 765.147156 572.14032 C 769.508057 573.02063 773.9422 573.487366 778.390808 573.534424 C 778.390808 573.534424 784.664063 579.807678 791.634399 579.110657 C 796.263428 578.51947 800.748962 577.102966 804.877991 574.928467 C 804.877991 574.928467 806.272034 570.746277 801.392822 569.352234 C 796.513611 567.958191 783.27002 563.776001 780.481934 549.138367 Z"/>
    <path id="path32" fill="#2f2e41" stroke="none" d="M 804.240479 277.902069 C 804.240479 282.752502 800.308472 286.68454 795.458008 286.68454 C 790.607605 286.68454 786.675598 282.752502 786.675598 277.902069 C 786.675598 273.051666 790.607605 269.119629 795.458008 269.119629 C 800.308472 269.119629 804.240479 273.051666 804.240479 277.902069 Z"/>
    <path id="path33" fill="#2f2e41" stroke="none" d="M 807.167969 273.144897 C 807.167725 268.648682 803.772034 264.878662 799.300354 264.409912 C 799.604248 264.378357 799.909607 264.362488 800.215149 264.362427 C 805.065613 264.362427 808.99762 268.294464 808.99762 273.144867 C 808.99762 277.99527 805.065613 281.927307 800.215149 281.927307 C 799.909607 281.927216 799.604248 281.911377 799.300354 281.879822 C 803.772034 281.411072 807.167664 277.641083 807.167969 273.144897 Z"/>
    <path id="path34" fill="#2f2e41" stroke="none" d="M 800.201904 295.740326 C 800.201904 300.590729 793.648499 304.522766 785.564514 304.522766 C 777.480469 304.522766 770.927124 300.590729 770.927124 295.740326 C 770.927124 290.889923 777.480469 286.957886 785.564514 286.957886 C 793.648499 286.957886 800.201904 290.889923 800.201904 295.740326 Z"/>
    <path id="path35" fill="#e6e6e6" stroke="none" d="M 1016.11969 88.349182 C 1014.884949 66.517212 998.029297 48.787231 976.287598 46.450867 C 954.545898 44.114563 934.308167 57.858582 928.463074 78.92981 C 927.921875 78.910339 927.381104 78.888611 926.835083 78.888611 C 907.010254 78.892273 889.557617 91.956848 883.968506 110.977539 C 870.81427 105.197754 855.416504 109.027771 846.502991 120.296753 L 985.865295 120.296753 C 994.080261 120.319946 1001.950623 116.997742 1007.664246 111.095032 C 1013.377747 105.192383 1016.441956 97.217957 1016.151306 89.008118 C 1016.142436 88.788798 1016.131897 88.569153 1016.11969 88.349182 Z"/>
    <path id="path36" fill="#e6e6e6" stroke="none" d="M 911.613892 170.375977 C 911.613892 177.003387 906.241333 182.375977 899.613892 182.375977 C 892.986511 182.375977 887.613892 177.003387 887.613892 170.375977 C 887.613892 163.748566 892.986511 158.375977 899.613892 158.375977 C 906.241333 158.375977 911.613892 163.748566 911.613892 170.375977 Z"/>
    <path id="path37" fill="#e6e6e6" stroke="none" d="M 945.838745 142.083618 C 945.838745 147.601959 941.365295 152.075439 935.846924 152.075439 C 930.328613 152.075439 925.855164 147.601959 925.855164 142.083618 C 925.855164 136.565308 930.328613 132.091797 935.846924 132.091797 C 941.365295 132.091797 945.838745 136.565308 945.838745 142.083618 Z"/>
    <path id="path38" fill="#e6e6e6" stroke="none" d="M 996.613892 196.375977 C 996.613892 203.003387 991.241333 208.375977 984.613892 208.375977 C 977.986511 208.375977 972.613892 203.003387 972.613892 196.375977 C 972.613892 189.748566 977.986511 184.375977 984.613892 184.375977 C 991.241333 184.375977 996.613892 189.748566 996.613892 196.375977 Z"/>
    <path id="path39" fill="#e6e6e6" stroke="none" d="M 905.613892 251.375977 C 905.613892 258.003387 900.241333 263.375977 893.613892 263.375977 C 886.986511 263.375977 881.613892 258.003387 881.613892 251.375977 C 881.613892 244.748566 886.986511 239.375977 893.613892 239.375977 C 900.241333 239.375977 905.613892 244.748566 905.613892 251.375977 Z"/>
    <path id="path40" fill="#e6e6e6" stroke="none" d="M 996.613892 320.375977 C 996.613892 327.003387 991.241333 332.375977 984.613892 332.375977 C 977.986511 332.375977 972.613892 327.003387 972.613892 320.375977 C 972.613892 313.748566 977.986511 308.375977 984.613892 308.375977 C 991.241333 308.375977 996.613892 313.748566 996.613892 320.375977 Z"/>
    <path id="path41" fill="#e6e6e6" stroke="none" d="M 965.594299 551.764282 C 965.59845 551.634216 965.613892 551.50708 965.613892 551.375977 C 965.619934 547.289795 963.543274 543.482239 960.104614 541.27478 C 956.666016 539.067383 952.339478 538.764526 948.626831 540.471252 C 945.102905 536.404297 939.297913 535.189392 934.438843 537.501831 C 929.579773 539.81427 926.861511 545.085449 927.795227 550.385132 C 927.734253 550.384216 927.67511 550.375977 927.613892 550.375977 C 922.366821 550.367737 917.722839 553.769531 916.148193 558.77478 C 914.573547 563.780029 916.433411 569.227905 920.740112 572.225342 C 925.046875 575.222717 930.801575 575.074402 934.948181 571.859192 C 936.886108 575.634766 940.675049 578.105103 944.91156 578.355164 C 949.148071 578.605164 953.201355 576.597717 955.569946 573.076355 C 959.474915 575.917297 964.703064 576.138367 968.833923 573.637207 C 972.964783 571.136047 975.192017 566.400879 974.484497 561.623901 C 973.776978 556.846985 970.272827 552.960693 965.594299 551.764282 Z"/>
    <path id="path42" fill="#e6e6e6" stroke="none" d="M 1000.613892 272.375977 C 1000.613892 275.13739 998.375305 277.375977 995.613892 277.375977 C 992.852478 277.375977 990.613892 275.13739 990.613892 272.375977 C 990.613892 269.614563 992.852478 267.375977 995.613892 267.375977 C 998.375305 267.375977 1000.613892 269.614563 1000.613892 272.375977 Z"/>
    <path id="path43" fill="#e6e6e6" stroke="none" d="M 968.613892 152.375977 C 968.613892 155.13739 966.375305 157.375977 963.613892 157.375977 C 960.852478 157.375977 958.613892 155.13739 958.613892 152.375977 C 958.613892 149.614532 960.852478 147.375977 963.613892 147.375977 C 966.375305 147.375977 968.613892 149.614532 968.613892 152.375977 Z"/>
    <path id="path44" fill="#e6e6e6" stroke="none" d="M 951.613892 276.375977 C 951.613892 279.13739 949.375305 281.375977 946.613892 281.375977 C 943.852478 281.375977 941.613892 279.13739 941.613892 276.375977 C 941.613892 273.614563 943.852478 271.375977 946.613892 271.375977 C 949.375305 271.375977 951.613892 273.614563 951.613892 276.375977 Z"/>
    <path id="path45" fill="#e6e6e6" stroke="none" d="M 955.613892 271.375977 C 955.613892 274.13739 953.375305 276.375977 950.613892 276.375977 C 947.852478 276.375977 945.613892 274.13739 945.613892 271.375977 C 945.613892 268.614563 947.852478 266.375977 950.613892 266.375977 C 953.375305 266.375977 955.613892 268.614563 955.613892 271.375977 Z"/>
    <path id="path46" fill="#e6e6e6" stroke="none" d="M 958.613892 266.375977 C 958.613892 269.13739 956.375305 271.375977 953.613892 271.375977 C 950.852478 271.375977 948.613892 269.13739 948.613892 266.375977 C 948.613892 263.614563 950.852478 261.375977 953.613892 261.375977 C 956.375305 261.375977 958.613892 263.614563 958.613892 266.375977 Z"/>
    <path id="path47" fill="#e6e6e6" stroke="none" d="M 946.613892 308.375977 C 946.613892 311.13739 944.375305 313.375977 941.613892 313.375977 C 938.852478 313.375977 936.613892 311.13739 936.613892 308.375977 C 936.613892 305.614532 938.852478 303.375977 941.613892 303.375977 C 944.375305 303.375977 946.613892 305.614532 946.613892 308.375977 Z"/>
    <path id="path48" fill="#e6e6e6" stroke="none" d="M 1020.613892 364.375977 C 1020.613892 367.13739 1018.375305 369.375977 1015.613892 369.375977 C 1012.852478 369.375977 1010.613892 367.13739 1010.613892 364.375977 C 1010.613892 361.614532 1012.852478 359.375977 1015.613892 359.375977 C 1018.375305 359.375977 1020.613892 361.614532 1020.613892 364.375977 Z"/>
    <path id="path49" fill="#e6e6e6" stroke="none" d="M 913.613892 367.375977 C 913.613892 370.13739 911.375305 372.375977 908.613892 372.375977 C 905.852478 372.375977 903.613892 370.13739 903.613892 367.375977 C 903.613892 364.614532 905.852478 362.375977 908.613892 362.375977 C 911.375305 362.375977 913.613892 364.614532 913.613892 367.375977 Z"/>
    <path id="path50" fill="#e6e6e6" stroke="none" d="M 919.613892 213.375977 C 919.613892 216.13739 917.375305 218.375977 914.613892 218.375977 C 911.852478 218.375977 909.613892 216.13739 909.613892 213.375977 C 909.613892 210.614563 911.852478 208.375977 914.613892 208.375977 C 917.375305 208.375977 919.613892 210.614563 919.613892 213.375977 Z"/>
    <path id="path51" fill="#e6e6e6" stroke="none" d="M 942.613892 303.375977 C 942.613892 306.13739 940.375305 308.375977 937.613892 308.375977 C 934.852478 308.375977 932.613892 306.13739 932.613892 303.375977 C 932.613892 300.614563 934.852478 298.375977 937.613892 298.375977 C 940.375305 298.375977 942.613892 300.614563 942.613892 303.375977 Z"/>
    <path id="path52" fill="#e6e6e6" stroke="none" d="M 937.613892 295.375977 C 937.613892 298.13739 935.375305 300.375977 932.613892 300.375977 C 929.852478 300.375977 927.613892 298.13739 927.613892 295.375977 C 927.613892 292.614563 929.852478 290.375977 932.613892 290.375977 C 935.375305 290.375977 937.613892 292.614563 937.613892 295.375977 Z"/>
</svg>
